<svg version="1.1" xmlns="http://www.w3.org/2000/svg" xmlns:xlink="http://www.w3.org/1999/xlink" width="995.76699" height="501.08057" viewBox="0,0,995.76699,501.08057"><g transform="translate(319.89728,46.75)"><g data-paper-data="{&quot;isPaintingLayer&quot;:true}" fill-rule="nonzero" stroke-linejoin="miter" stroke-miterlimit="10" stroke-dasharray="" stroke-dashoffset="0" style="mix-blend-mode: normal"><path d="" data-paper-data="{&quot;index&quot;:null}" fill="#9966ff" stroke="#000000" stroke-width="2" stroke-linecap="butt"/><path d="" data-paper-data="{&quot;index&quot;:null}" fill="#9966ff" stroke="#000000" stroke-width="2" stroke-linecap="butt"/><path d="" data-paper-data="{&quot;index&quot;:null}" fill="#9966ff" stroke="#000000" stroke-width="2" stroke-linecap="butt"/><path d="" data-paper-data="{&quot;index&quot;:null}" fill="#9966ff" stroke="#000000" stroke-width="2" stroke-linecap="butt"/><path d="" data-paper-data="{&quot;index&quot;:null}" fill="#9966ff" stroke="#000000" stroke-width="2" stroke-linecap="butt"/><path d="" data-paper-data="{&quot;index&quot;:null}" fill="#9966ff" stroke="#000000" stroke-width="2" stroke-linecap="butt"/><path d="" data-paper-data="{&quot;index&quot;:null}" fill="#9966ff" stroke="#000000" stroke-width="2" stroke-linecap="butt"/><path d="" data-paper-data="{&quot;index&quot;:null}" fill="#9966ff" stroke="#000000" stroke-width="2" stroke-linecap="butt"/><path d="" data-paper-data="{&quot;index&quot;:null}" fill="#9966ff" stroke="#000000" stroke-width="2" stroke-linecap="butt"/><path d="" data-paper-data="{&quot;index&quot;:null}" fill="#9966ff" stroke="#000000" stroke-width="2" stroke-linecap="butt"/><path d="" data-paper-data="{&quot;index&quot;:null}" fill="#9966ff" stroke="#000000" stroke-width="2" stroke-linecap="butt"/><path d="" data-paper-data="{&quot;index&quot;:null}" fill="#9966ff" stroke="#000000" stroke-width="2" stroke-linecap="butt"/><path d="" data-paper-data="{&quot;index&quot;:null}" fill="#9966ff" stroke="#000000" stroke-width="2" stroke-linecap="butt"/><path d="" data-paper-data="{&quot;index&quot;:null}" fill="#9966ff" stroke="#000000" stroke-width="2" stroke-linecap="butt"/><path d="" data-paper-data="{&quot;index&quot;:null}" fill="#9966ff" stroke="#000000" stroke-width="2" stroke-linecap="butt"/><path d="" data-paper-data="{&quot;index&quot;:null}" fill="#9966ff" stroke="#000000" stroke-width="2" stroke-linecap="butt"/><path d="" data-paper-data="{&quot;index&quot;:null}" fill="#9966ff" stroke="#000000" stroke-width="2" stroke-linecap="butt"/><path d="" data-paper-data="{&quot;index&quot;:null}" fill="#9966ff" stroke="#000000" stroke-width="2" stroke-linecap="butt"/><path d="" data-paper-data="{&quot;index&quot;:null}" fill="#9966ff" stroke="#000000" stroke-width="2" stroke-linecap="butt"/><path d="" data-paper-data="{&quot;index&quot;:null}" fill="#9966ff" stroke="#000000" stroke-width="2" stroke-linecap="butt"/><path d="" data-paper-data="{&quot;index&quot;:null}" fill="#9966ff" stroke="#000000" stroke-width="2" stroke-linecap="butt"/><path d="" data-paper-data="{&quot;index&quot;:null}" fill="#9966ff" stroke="#000000" stroke-width="2" stroke-linecap="butt"/><path d="" data-paper-data="{&quot;index&quot;:null}" fill="#9966ff" stroke="#000000" stroke-width="2" stroke-linecap="butt"/><path d="" data-paper-data="{&quot;index&quot;:null}" fill="#9966ff" stroke="#000000" stroke-width="2" stroke-linecap="butt"/><path d="" data-paper-data="{&quot;index&quot;:null}" fill="#9966ff" stroke="#000000" stroke-width="2" stroke-linecap="butt"/><path d="" data-paper-data="{&quot;index&quot;:null}" fill="#9966ff" stroke="#000000" stroke-width="2" stroke-linecap="butt"/><path d="M673.99735,347.22105c-0.48179,0 -0.87236,-0.97642 -0.87236,-2.18089c0,-1.20447 0.39057,-2.18089 0.87236,-2.18089c0.48179,0 0.87236,0.97642 0.87236,2.18089c0,1.20447 -0.39057,2.18089 -0.87236,2.18089z" data-paper-data="{&quot;index&quot;:null}" fill="#9966ff" stroke="#000000" stroke-width="2" stroke-linecap="butt"/><path d="M254.68888,-44.63525l47.93428,-1.11475" data-paper-data="{&quot;index&quot;:null}" fill="none" stroke="#000000" stroke-width="2" stroke-linecap="round"/><path d="M-251.72583,310.58208l19.31677,-19.31677" data-paper-data="{&quot;index&quot;:null}" fill="none" stroke="#000000" stroke-width="2" stroke-linecap="round"/><path d="M-210.47217,269.32842l10.56469,-10.56469" data-paper-data="{&quot;index&quot;:null}" fill="none" stroke="#000000" stroke-width="2" stroke-linecap="round"/><path d="M-182.58612,241.44237l15.93366,-15.93366" data-paper-data="{&quot;index&quot;:null}" fill="none" stroke="#000000" stroke-width="2" stroke-linecap="round"/><path d="M-157.07611,215.93236l5.42121,-5.42121" data-paper-data="{&quot;index&quot;:null}" fill="none" stroke="#000000" stroke-width="2" stroke-linecap="round"/><path d="M-143.59981,202.45606l-3.05227,3.05227" data-paper-data="{&quot;index&quot;:null}" fill="none" stroke="#000000" stroke-width="2" stroke-linecap="round"/><path d="M-131.65219,190.50844l8.79463,-8.79463" data-paper-data="{&quot;index&quot;:null}" fill="none" stroke="#000000" stroke-width="2" stroke-linecap="round"/><path d="M-318.89728,-44.0365h220.40743" data-paper-data="{&quot;index&quot;:null}" fill="none" stroke="#000000" stroke-width="2" stroke-linecap="round"/><path d="" data-paper-data="{&quot;index&quot;:null}" fill="#9966ff" stroke="none" stroke-width="0.5" stroke-linecap="butt"/><path d="" data-paper-data="{&quot;index&quot;:null}" fill="#9966ff" stroke="none" stroke-width="0.5" stroke-linecap="butt"/><path d="" data-paper-data="{&quot;index&quot;:null}" fill="#9966ff" stroke="none" stroke-width="0.5" stroke-linecap="butt"/><path d="" data-paper-data="{&quot;index&quot;:null}" fill="#9966ff" stroke="none" stroke-width="0.5" stroke-linecap="butt"/><path d="" data-paper-data="{&quot;index&quot;:null}" fill="#9966ff" stroke="#000000" stroke-width="2" stroke-linecap="butt"/><path d="" data-paper-data="{&quot;index&quot;:null}" fill="#9966ff" stroke="#000000" stroke-width="2" stroke-linecap="butt"/><path d="" data-paper-data="{&quot;index&quot;:null}" fill="#9966ff" stroke="#000000" stroke-width="2" stroke-linecap="butt"/><path d="" data-paper-data="{&quot;index&quot;:null}" fill="#9966ff" stroke="#000000" stroke-width="2" stroke-linecap="butt"/><path d="" data-paper-data="{&quot;index&quot;:null}" fill="#9966ff" stroke="#000000" stroke-width="2" stroke-linecap="butt"/><path d="" data-paper-data="{&quot;index&quot;:null}" fill="#9966ff" stroke="#000000" stroke-width="2" stroke-linecap="butt"/><path d="" data-paper-data="{&quot;index&quot;:null}" fill="#9966ff" stroke="#000000" stroke-width="2" stroke-linecap="butt"/><path d="" data-paper-data="{&quot;index&quot;:null}" fill="#9966ff" stroke="#000000" stroke-width="2" stroke-linecap="butt"/><path d="" data-paper-data="{&quot;index&quot;:null}" fill="#9966ff" stroke="#000000" stroke-width="2" stroke-linecap="butt"/><path d="" data-paper-data="{&quot;index&quot;:null}" fill="#9966ff" stroke="#000000" stroke-width="2" stroke-linecap="butt"/><path d="" data-paper-data="{&quot;index&quot;:null}" fill="#9966ff" stroke="#000000" stroke-width="2" stroke-linecap="butt"/><path d="" data-paper-data="{&quot;index&quot;:null}" fill="#9966ff" stroke="#000000" stroke-width="2" stroke-linecap="butt"/><path d="" data-paper-data="{&quot;index&quot;:null}" fill="#9966ff" stroke="#000000" stroke-width="2" stroke-linecap="butt"/><path d="" data-paper-data="{&quot;index&quot;:null}" fill="#9966ff" stroke="#000000" stroke-width="2" stroke-linecap="butt"/><path d="" data-paper-data="{&quot;index&quot;:null}" fill="#9966ff" stroke="#000000" stroke-width="2" stroke-linecap="butt"/><path d="" data-paper-data="{&quot;index&quot;:null}" fill="#9966ff" stroke="#000000" stroke-width="2" stroke-linecap="butt"/><path d="" data-paper-data="{&quot;index&quot;:null}" fill="#9966ff" stroke="#000000" stroke-width="2" stroke-linecap="butt"/><path d="" data-paper-data="{&quot;index&quot;:null}" fill="#9966ff" stroke="#000000" stroke-width="2" stroke-linecap="butt"/><path d="" data-paper-data="{&quot;index&quot;:null}" fill="#9966ff" stroke="#000000" stroke-width="2" stroke-linecap="butt"/><path d="" data-paper-data="{&quot;index&quot;:null}" fill="#9966ff" stroke="#000000" stroke-width="2" stroke-linecap="butt"/><path d="" data-paper-data="{&quot;index&quot;:null}" fill="#9966ff" stroke="#000000" stroke-width="2" stroke-linecap="butt"/><path d="" data-paper-data="{&quot;index&quot;:null}" fill="#9966ff" stroke="#000000" stroke-width="2" stroke-linecap="butt"/><path d="" data-paper-data="{&quot;index&quot;:null}" fill="#9966ff" stroke="#000000" stroke-width="2" stroke-linecap="butt"/><path d="" data-paper-data="{&quot;index&quot;:null}" fill="#9966ff" stroke="#000000" stroke-width="2" stroke-linecap="butt"/><path d="" data-paper-data="{&quot;index&quot;:null}" fill="#9966ff" stroke="#000000" stroke-width="2" stroke-linecap="butt"/><path d="" data-paper-data="{&quot;index&quot;:null}" fill="#9966ff" stroke="#000000" stroke-width="2" stroke-linecap="butt"/><path d="" data-paper-data="{&quot;index&quot;:null}" fill="#9966ff" stroke="#000000" stroke-width="2" stroke-linecap="butt"/><path d="" data-paper-data="{&quot;index&quot;:null}" fill="#9966ff" stroke="#000000" stroke-width="2" stroke-linecap="butt"/><path d="" data-paper-data="{&quot;index&quot;:null}" fill="#9966ff" stroke="#000000" stroke-width="2" stroke-linecap="butt"/><path d="" data-paper-data="{&quot;index&quot;:null}" fill="#9966ff" stroke="#000000" stroke-width="2" stroke-linecap="butt"/><path d="" data-paper-data="{&quot;index&quot;:null}" fill="#9966ff" stroke="#000000" stroke-width="2" stroke-linecap="butt"/><path d="" data-paper-data="{&quot;index&quot;:null}" fill="#9966ff" stroke="#000000" stroke-width="2" stroke-linecap="butt"/><path d="M356.60685,195.85425c-2.80004,4.9511 -4.73953,10.40726 -5.57885,16.28509c-0.5175,3.62408 0.51285,7.50068 0,11.08692c-0.36099,2.52432 -1.80845,4.81352 -2.15729,7.33955c-0.25278,1.83045 0,3.69564 0,5.54346c-0.89815,2.69443 -1.1722,5.58902 -1.25186,8.42808v4.43477c0,1.16561 0.17988,2.28922 0.51339,3.34456c-2.27782,5.62497 -4.96056,11.03469 -8.011,16.19107l-1.45072,1.45072c-1.48605,1.48605 -2.5522,3.39199 -3.00522,5.52458c-21.26954,30.9066 -56.40316,51.09751 -96.14395,51.09751c-56.15243,0 -103.10673,-40.31065 -114.74964,-94.20281c0,-1.14737 0,-2.29472 0,-3.44207c0,-2.96352 0.1431,-11.56915 -0.84394,-13.11231c-0.53533,-0.83696 -1.1119,-1.67533 -1.72971,-2.49307c-0.13144,-2.33043 -0.19807,-4.67867 -0.19807,-7.04283c0,-4.03455 0.19405,-8.02271 0.57311,-11.95524c0.91367,-2.81929 1.58105,-6.13907 2.11556,-8.38958c-0.13089,-0.85886 -0.63627,-1.74267 -0.39265,-2.57659c0.25192,-0.86233 1.42138,-1.21571 1.74533,-2.05364c1.36207,-3.52319 1.58512,-7.39943 2.00251,-11.15362c0.30061,-2.7038 1.55867,-5.22421 2.07488,-7.89418c0.83007,-2.15954 1.7194,-4.28857 2.66593,-6.385c3.2316,-1.93346 7.66512,-4.019 8.35809,-5.86941c1.14958,-3.06968 0.76235,-6.44958 0.15251,-9.78954c21.01255,-32.66569 57.15948,-54.2263 98.22612,-54.2263c32.95425,0 62.7405,13.88372 84.08051,36.24841c2.78453,4.86838 5.50386,9.72963 10.42738,13.01564c0.20898,0.13949 0.41964,0.27157 0.63185,0.39675c12.20335,17.19234 20.06744,37.82047 21.94573,60.19908z" data-paper-data="{&quot;index&quot;:null}" fill="#9966ff" stroke="#ffffff" stroke-width="2" stroke-linecap="butt"/><path d="M228.47361,112.27047l-7.69817,222.28462" data-paper-data="{&quot;index&quot;:null}" fill="none" stroke="#ffffff" stroke-width="7.5" stroke-linecap="round"/><path d="M124.99391,233.34446l205.48448,-8.49935" data-paper-data="{&quot;index&quot;:null}" fill="none" stroke="#ffffff" stroke-width="7.5" stroke-linecap="round"/><path d="M140.90458,168.31709l175.5725,125.18398" data-paper-data="{&quot;index&quot;:null}" fill="none" stroke="#ffffff" stroke-width="7.5" stroke-linecap="round"/><path d="M147.31708,293.92904l159.56861,-142.14845" data-paper-data="{&quot;index&quot;:null}" fill="none" stroke="#ffffff" stroke-width="7.5" stroke-linecap="round"/><text transform="translate(139.5,201.50844) scale(0.5,-0.5)" font-size="40" xml:space="preserve" data-paper-data="{&quot;index&quot;:null}" fill="#000000" fill-rule="nonzero" stroke="none" stroke-width="1" stroke-linecap="butt" stroke-linejoin="miter" stroke-miterlimit="10" stroke-dasharray="" stroke-dashoffset="0" font-family="Sans Serif" font-weight="normal" text-anchor="start" style="mix-blend-mode: normal"><tspan x="0" dy="0">fifa</tspan></text><text transform="translate(211.50402,131.18691) rotate(90.1923) scale(0.41442,-0.41442)" font-size="40" xml:space="preserve" data-paper-data="{&quot;index&quot;:null}" fill="#000000" fill-rule="nonzero" stroke="none" stroke-width="1" stroke-linecap="butt" stroke-linejoin="miter" stroke-miterlimit="10" stroke-dasharray="" stroke-dashoffset="0" font-family="Sans Serif" font-weight="normal" text-anchor="start" style="mix-blend-mode: normal"><tspan x="0" dy="0">joga bola</tspan></text><text transform="translate(246.20788,134.16396) rotate(51.63355) scale(0.3617,-0.3617)" font-size="40" xml:space="preserve" data-paper-data="{&quot;index&quot;:null}" fill="#000000" fill-rule="nonzero" stroke="none" stroke-width="1" stroke-linecap="butt" stroke-linejoin="miter" stroke-miterlimit="10" stroke-dasharray="" stroke-dashoffset="0" font-family="Sans Serif" font-weight="normal" text-anchor="start" style="mix-blend-mode: normal"><tspan x="0" dy="0">come</tspan></text><text transform="translate(271.19245,204.07857) rotate(-2.80847) scale(0.38585,-0.38585)" font-size="40" xml:space="preserve" data-paper-data="{&quot;index&quot;:null}" fill="#000000" fill-rule="nonzero" stroke="none" stroke-width="1" stroke-linecap="butt" stroke-linejoin="miter" stroke-miterlimit="10" stroke-dasharray="" stroke-dashoffset="0" font-family="Sans Serif" font-weight="normal" text-anchor="start" style="mix-blend-mode: normal"><tspan x="0" dy="0">dormir</tspan></text><text transform="translate(269.54414,237.57061) rotate(22.20637) scale(0.34531,-0.34531)" font-size="40" xml:space="preserve" data-paper-data="{&quot;index&quot;:null}" fill="#000000" fill-rule="nonzero" stroke="none" stroke-width="1" stroke-linecap="butt" stroke-linejoin="miter" stroke-miterlimit="10" stroke-dasharray="" stroke-dashoffset="0" font-family="Sans Serif" font-weight="normal" text-anchor="start" style="mix-blend-mode: normal"><tspan x="0" dy="0">ver jogo</tspan></text><text transform="translate(134.15448,264.50728) rotate(-24.2187) scale(0.26165,-0.26165)" font-size="40" xml:space="preserve" data-paper-data="{&quot;index&quot;:null}" fill="#000000" fill-rule="nonzero" stroke="none" stroke-width="1" stroke-linecap="butt" stroke-linejoin="miter" stroke-miterlimit="10" stroke-dasharray="" stroke-dashoffset="0" font-family="Sans Serif" font-weight="normal" text-anchor="start" style="mix-blend-mode: normal"><tspan x="0" dy="0">ficar em casa</tspan></text><text transform="translate(168.30107,298.65789) rotate(-46.89915) scale(0.25372,-0.25372)" font-size="40" xml:space="preserve" data-paper-data="{&quot;index&quot;:null}" fill="#000000" fill-rule="nonzero" stroke="none" stroke-width="1" stroke-linecap="butt" stroke-linejoin="miter" stroke-miterlimit="10" stroke-dasharray="" stroke-dashoffset="0" font-family="Sans Serif" font-weight="normal" text-anchor="start" style="mix-blend-mode: normal"><tspan x="0" dy="0">brisil ser hexa</tspan></text><text transform="translate(236.88882,244.34157) rotate(45.92599) scale(0.30964,-0.30964)" font-size="40" xml:space="preserve" data-paper-data="{&quot;index&quot;:null}" fill="#000000" fill-rule="nonzero" stroke="none" stroke-width="1" stroke-linecap="butt" stroke-linejoin="miter" stroke-miterlimit="10" stroke-dasharray="" stroke-dashoffset="0" font-family="Sans Serif" font-weight="normal" text-anchor="start" style="mix-blend-mode: normal"><tspan x="0" dy="0">joga no celular</tspan></text><path d="M-232.5,446.83057c2.07107,0 3.75,1.67893 3.75,3.75c0,2.07107 -1.67893,3.75 -3.75,3.75c-2.07107,0 -3.75,-1.67893 -3.75,-3.75c0,-2.07107 1.67893,-3.75 3.75,-3.75z" data-paper-data="{&quot;index&quot;:null}" fill="#000000" stroke="none" stroke-width="0.5" stroke-linecap="butt"/><path d="" data-paper-data="{&quot;index&quot;:null}" fill="#000000" stroke="none" stroke-width="0.5" stroke-linecap="butt"/><path d="" data-paper-data="{&quot;index&quot;:null}" fill="#000000" stroke="none" stroke-width="0.5" stroke-linecap="butt"/><path d="M415.82908,268.68457c1.87804,0.00145 3.73036,0.16927 5.47825,0.85383c-1.16137,-1.27458 -0.58813,-7.32714 -0.39643,-8.04453c0.31027,-1.16111 1.65942,-1.84742 2,-3c0.31077,-1.05172 -0.25725,-2.19631 -0.14225,-3.28694c0.18131,-1.71951 0.86401,-3.36332 1.02499,-5.08486c0.26937,-2.88076 0.31884,-5.78249 0.44932,-8.6753l-3.74297,0.88379c0,0 -3.75,0 -3.75,-3.75c0,-3.75 3.75,-3.75 3.75,-3.75l-0.65165,1.09835c1.63308,-1.54664 3.47175,-2.57487 5.44267,-3.24753c0.19955,-0.81731 0.39257,-1.63533 0.47723,-2.47034c0.1557,-1.53563 -0.34548,-3.12206 -0.01825,-4.63048c0.00196,-0.00905 0.00468,-0.01795 0.00812,-0.02668c-4.65652,1.20135 -9.10243,0.21338 -13.94882,0.76391c-4.02887,0.45766 -8.06945,0.88955 -12.1225,1.00812c-3.14783,0.09209 -6.31759,0.28856 -9.40247,0.92172c-3.39094,0.69598 -6.72201,2.03452 -10.18364,2.03452c-1.40237,-1.27781 0.09859,0.05174 0.14932,0.29842c0.34133,1.65985 -0.56245,2.55887 0.43994,4.02851c0.4391,0.64378 1.23186,0.97876 1.71009,1.59403c2.84615,3.66177 2.73876,4.00355 3.75861,8.55475c0.32515,1.45103 0.29596,2.9908 0.80591,4.38764c0.97591,2.6732 3.72904,4.90804 5.43548,7.0576c0.67152,0.84589 1.00876,1.94183 1.75162,2.72581c1.36667,1.44231 6.76132,3.14903 7.41269,3.521c0.74742,0.42682 1.01581,1.47779 1.78328,1.8674c2.58738,1.3135 7.2457,1.92325 10.06189,2.62522c0,0 1.60922,0.40231 2.41957,1.74205zM401.82144,271.73217c-0.7831,-0.27119 -1.51607,-0.56539 -2.16904,-0.88832c-0.91908,-0.45455 -1.32662,-1.62364 -2.21672,-2.1326c-2.80259,-1.60253 -6.26467,-2.23669 -8.58731,-4.479c-0.9525,-0.91955 -1.41786,-2.24313 -2.24838,-3.27419c-2.21703,-2.75235 -5.26266,-5.53642 -6.56452,-8.9424c-1.0868,-2.84334 -0.80623,-6.10317 -1.96488,-8.91799c-0.74852,-1.81846 -2.79841,-2.83051 -3.76051,-4.54558c-1.45449,-2.59284 -2.96367,-10.51972 -0.85222,-13.16416c1.24625,-1.56084 3.62765,-1.67261 5.44147,-2.50891c3.33707,0 6.54586,-1.3023 9.81636,-1.96548c5.78382,-1.17283 10.74642,-0.59177 16.47502,-1.07016c5.46492,-0.45637 9.77446,-1.01278 15.3093,-1.01278c3.19799,0 9.88323,-0.12594 11.65165,1.09835c1.57789,1.09239 0.91117,3.74167 1.09835,5.65165c0.19348,1.9742 0.00478,3.95474 -0.28947,5.93083c3.84724,-0.08377 7.82726,0.31917 11.53947,0.31917c4.51799,0.01887 8.28684,1.42154 12.60068,2.04842c1.48026,0.21511 3.04642,-0.29376 4.48601,0.11248c1.15668,0.3264 1.87442,1.57868 3,2c1.53466,0.57444 3.27466,-0.1609 4.91331,-0.1609c4.88947,0 9.94341,-0.32592 14.81956,0.07888c7.10339,0.58969 14.94863,1.57987 21.93033,2.99686c2.30252,0.46731 4.44924,1.59592 6.77024,1.9605c6.17658,0.97022 13.17986,-0.03625 19.47987,-0.03625c0,0 3.75,0 3.75,3.75c0,3.75 -3.75,3.75 -3.75,3.75c-6.66059,0 -13.97084,0.95246 -20.52013,-0.03625c-2.47592,-0.37378 -4.77576,-1.54174 -7.22976,-2.0395c-6.67998,-1.35495 -14.15538,-2.29477 -20.95384,-2.86366c-4.70058,-0.39334 -9.58321,-0.0606 -14.29628,-0.0606c-1.11437,0 -6.42998,0.03935 -7.08669,-0.1609c-1.14959,-0.35054 -1.84563,-1.66551 -3,-2c-1.12562,-0.32617 -2.35343,0.27531 -3.51399,0.11248c-3.9763,-0.5579 -7.23628,-1.97251 -11.39932,-1.95158c-3,0 -6,0 -9,0c-1.2234,0 -2.44624,-0.11147 -3.63211,-0.16531c-0.32043,3.9133 -0.25445,7.86661 -0.61944,11.77903c-0.15828,1.69667 -0.81535,3.31786 -1.01711,5.00991c-0.1861,1.56068 0.27837,3.19865 -0.14225,4.71306c-0.32163,1.15801 -1.64308,1.85237 -2,3c-0.64494,2.07368 0.70349,4.4243 0.11248,6.51399c-0.54357,1.92195 -1.67261,3.62765 -2.50891,5.44147c-5.15758,0.58953 -10.01952,0.70784 -15.19266,0.70784h-5c0,0 -3.75,0 -3.75,-3.75c0,-0.3073 0.02518,-0.58943 0.07142,-0.84843z" data-paper-data="{&quot;index&quot;:null}" fill="#000000" stroke="none" stroke-width="0.5" stroke-linecap="butt"/></g></g></svg>